<mxfile host="app.diagrams.net" agent="Mozilla/5.0 (Macintosh; Intel Mac OS X 10_15_7) AppleWebKit/537.36 (KHTML, like Gecko) Chrome/131.0.0.0 Safari/537.36" version="26.0.2">
  <diagram name="Page-1" id="jLHKPvpCi5waHuJjeF7_">
    <mxGraphModel dx="836" dy="476" grid="1" gridSize="10" guides="1" tooltips="1" connect="1" arrows="1" fold="1" page="1" pageScale="1" pageWidth="1100" pageHeight="850" math="0" shadow="0">
      <root>
        <mxCell id="0" />
        <mxCell id="1" parent="0" />
        <mxCell id="1Kf98Kf9pndZ8J6uR5St-3" value="Domain Analyzer" style="swimlane;html=1;startSize=20;fontStyle=0;collapsible=0;horizontal=0;swimlaneLine=1;swimlaneFillColor=#ffffff;strokeWidth=2;whiteSpace=wrap;fontFamily=Garamond;fontSize=14;rounded=0;" parent="1" vertex="1">
          <mxGeometry x="220" y="170" width="720" height="460" as="geometry" />
        </mxCell>
        <mxCell id="1Kf98Kf9pndZ8J6uR5St-5" value="Domain Configuration" style="swimlane;html=1;startSize=20;fontStyle=0;collapsible=0;horizontal=0;swimlaneLine=1;swimlaneFillColor=#ffffff;strokeWidth=2;whiteSpace=wrap;fontFamily=Garamond;fontSize=14;rounded=0;" parent="1Kf98Kf9pndZ8J6uR5St-3" vertex="1">
          <mxGeometry x="20" y="210" width="700" height="250" as="geometry" />
        </mxCell>
        <mxCell id="1Kf98Kf9pndZ8J6uR5St-20" value="&lt;font style=&quot;font-size: 14px;&quot;&gt;&lt;span style=&quot;font-size: 14px;&quot;&gt;Component&amp;nbsp; Configuration&lt;/span&gt;&lt;/font&gt;" style="points=[[0.25,0,0],[0.5,0,0],[0.75,0,0],[1,0.25,0],[1,0.5,0],[1,0.75,0],[0.75,1,0],[0.5,1,0],[0.25,1,0],[0,0.75,0],[0,0.5,0],[0,0.25,0]];shape=mxgraph.bpmn.task;whiteSpace=wrap;rectStyle=rounded;size=10;html=1;container=1;expand=0;collapsible=0;taskMarker=abstract;fontFamily=Garamond;fontSize=14;fillColor=#e7f0fd;strokeColor=#6c8ebf;rounded=0;" parent="1Kf98Kf9pndZ8J6uR5St-5" vertex="1">
          <mxGeometry x="40" y="92" width="100" height="60" as="geometry" />
        </mxCell>
        <mxCell id="1Kf98Kf9pndZ8J6uR5St-22" value="&lt;font style=&quot;font-size: 14px;&quot;&gt;&lt;span style=&quot;font-size: 14px;&quot;&gt;Domain Operation Ontology Generation&lt;/span&gt;&lt;/font&gt;" style="points=[[0.25,0,0],[0.5,0,0],[0.75,0,0],[1,0.25,0],[1,0.5,0],[1,0.75,0],[0.75,1,0],[0.5,1,0],[0.25,1,0],[0,0.75,0],[0,0.5,0],[0,0.25,0]];shape=mxgraph.bpmn.task;whiteSpace=wrap;rectStyle=rounded;size=10;html=1;container=1;expand=0;collapsible=0;taskMarker=abstract;fontFamily=Garamond;fontSize=14;rounded=0;fillColor=#e7f0fd;strokeColor=#6c8ebf;" parent="1Kf98Kf9pndZ8J6uR5St-5" vertex="1">
          <mxGeometry x="245" y="92" width="125" height="60" as="geometry" />
        </mxCell>
        <mxCell id="wJY8AC6lqL3XPFAnhxow-2" style="edgeStyle=orthogonalEdgeStyle;rounded=0;orthogonalLoop=1;jettySize=auto;html=1;entryX=0;entryY=0.5;entryDx=0;entryDy=0;entryPerimeter=0;" parent="1Kf98Kf9pndZ8J6uR5St-5" source="1Kf98Kf9pndZ8J6uR5St-26" target="wJY8AC6lqL3XPFAnhxow-1" edge="1">
          <mxGeometry relative="1" as="geometry">
            <mxPoint x="660" y="182" as="targetPoint" />
          </mxGeometry>
        </mxCell>
        <mxCell id="1Kf98Kf9pndZ8J6uR5St-26" value="&lt;font style=&quot;font-size: 14px;&quot;&gt;&lt;span style=&quot;font-size: 14px;&quot;&gt;Interface Configuration&lt;/span&gt;&lt;/font&gt;" style="points=[[0.25,0,0],[0.5,0,0],[0.75,0,0],[1,0.25,0],[1,0.5,0],[1,0.75,0],[0.75,1,0],[0.5,1,0],[0.25,1,0],[0,0.75,0],[0,0.5,0],[0,0.25,0]];shape=mxgraph.bpmn.task;whiteSpace=wrap;rectStyle=rounded;size=10;html=1;container=1;expand=0;collapsible=0;taskMarker=abstract;fontFamily=Garamond;fontSize=14;rounded=0;fillColor=#d5e8d4;strokeColor=#82b366;" parent="1Kf98Kf9pndZ8J6uR5St-5" vertex="1">
          <mxGeometry x="540" y="92" width="90" height="60" as="geometry" />
        </mxCell>
        <mxCell id="1Kf98Kf9pndZ8J6uR5St-30" style="edgeStyle=orthogonalEdgeStyle;rounded=0;orthogonalLoop=1;jettySize=auto;html=1;exitX=1;exitY=0.5;exitDx=0;exitDy=0;exitPerimeter=0;entryX=0;entryY=0.5;entryDx=0;entryDy=0;entryPerimeter=0;fontFamily=Garamond;fontSize=14;" parent="1Kf98Kf9pndZ8J6uR5St-5" source="1Kf98Kf9pndZ8J6uR5St-37" target="1Kf98Kf9pndZ8J6uR5St-26" edge="1">
          <mxGeometry relative="1" as="geometry">
            <mxPoint x="540" y="177" as="sourcePoint" />
          </mxGeometry>
        </mxCell>
        <mxCell id="1Kf98Kf9pndZ8J6uR5St-37" value="&lt;font style=&quot;font-size: 14px;&quot;&gt;&lt;span style=&quot;font-size: 14px;&quot;&gt;Composition Model Configuration&lt;/span&gt;&lt;/font&gt;" style="points=[[0.25,0,0],[0.5,0,0],[0.75,0,0],[1,0.25,0],[1,0.5,0],[1,0.75,0],[0.75,1,0],[0.5,1,0],[0.25,1,0],[0,0.75,0],[0,0.5,0],[0,0.25,0]];shape=mxgraph.bpmn.task;whiteSpace=wrap;rectStyle=rounded;size=10;html=1;container=1;expand=0;collapsible=0;taskMarker=abstract;fontFamily=Garamond;fontSize=14;rounded=0;fillColor=#d5e8d4;strokeColor=#82b366;" parent="1Kf98Kf9pndZ8J6uR5St-5" vertex="1">
          <mxGeometry x="400" y="92" width="110" height="60" as="geometry" />
        </mxCell>
        <mxCell id="1Kf98Kf9pndZ8J6uR5St-42" value="&lt;font face=&quot;Garamond&quot;&gt;Domain-Specific&amp;nbsp;&lt;/font&gt;&lt;div&gt;&lt;font face=&quot;e39XvyBbdGOJdd5HH9Uq&quot;&gt;components&lt;/font&gt;&lt;/div&gt;" style="shape=mxgraph.bpmn.data;labelPosition=center;verticalLabelPosition=bottom;align=center;verticalAlign=top;size=15;html=1;bpmnTransferType=input;isCollection=1;rounded=0;" parent="1Kf98Kf9pndZ8J6uR5St-5" vertex="1">
          <mxGeometry x="80" y="167" width="40" height="40" as="geometry" />
        </mxCell>
        <mxCell id="wJY8AC6lqL3XPFAnhxow-1" value="" style="points=[[0.145,0.145,0],[0.5,0,0],[0.855,0.145,0],[1,0.5,0],[0.855,0.855,0],[0.5,1,0],[0.145,0.855,0],[0,0.5,0]];shape=mxgraph.bpmn.event;html=1;verticalLabelPosition=bottom;labelBackgroundColor=#ffffff;verticalAlign=top;align=center;perimeter=ellipsePerimeter;outlineConnect=0;aspect=fixed;outline=end;symbol=terminate2;rounded=0;" parent="1Kf98Kf9pndZ8J6uR5St-5" vertex="1">
          <mxGeometry x="660" y="107" width="30" height="30" as="geometry" />
        </mxCell>
        <mxCell id="wJY8AC6lqL3XPFAnhxow-5" value="" style="edgeStyle=elbowEdgeStyle;fontSize=12;html=1;endFill=0;startFill=0;endSize=6;startSize=6;dashed=1;dashPattern=1 4;endArrow=none;startArrow=none;rounded=0;exitX=0.5;exitY=1;exitDx=0;exitDy=0;exitPerimeter=0;entryX=0;entryY=0;entryDx=12.5;entryDy=0;entryPerimeter=0;" parent="1Kf98Kf9pndZ8J6uR5St-5" source="1Kf98Kf9pndZ8J6uR5St-20" target="1Kf98Kf9pndZ8J6uR5St-42" edge="1">
          <mxGeometry width="160" relative="1" as="geometry">
            <mxPoint x="410" y="42" as="sourcePoint" />
            <mxPoint x="570" y="42" as="targetPoint" />
          </mxGeometry>
        </mxCell>
        <mxCell id="wJY8AC6lqL3XPFAnhxow-6" value="" style="points=[[0.145,0.145,0],[0.5,0,0],[0.855,0.145,0],[1,0.5,0],[0.855,0.855,0],[0.5,1,0],[0.145,0.855,0],[0,0.5,0]];shape=mxgraph.bpmn.event;html=1;verticalLabelPosition=bottom;labelBackgroundColor=#ffffff;verticalAlign=top;align=center;perimeter=ellipsePerimeter;outlineConnect=0;aspect=fixed;outline=end;symbol=terminate2;rounded=0;" parent="1Kf98Kf9pndZ8J6uR5St-5" vertex="1">
          <mxGeometry x="180" y="107" width="30" height="30" as="geometry" />
        </mxCell>
        <mxCell id="wJY8AC6lqL3XPFAnhxow-7" style="edgeStyle=orthogonalEdgeStyle;rounded=0;orthogonalLoop=1;jettySize=auto;html=1;entryX=0;entryY=0.5;entryDx=0;entryDy=0;entryPerimeter=0;" parent="1Kf98Kf9pndZ8J6uR5St-5" source="1Kf98Kf9pndZ8J6uR5St-20" target="wJY8AC6lqL3XPFAnhxow-6" edge="1">
          <mxGeometry relative="1" as="geometry" />
        </mxCell>
        <mxCell id="n3WihoL2_NpWje6U1AKT-15" style="edgeStyle=orthogonalEdgeStyle;rounded=0;orthogonalLoop=1;jettySize=auto;html=1;exitX=1;exitY=0.5;exitDx=0;exitDy=0;exitPerimeter=0;entryX=0;entryY=0.5;entryDx=0;entryDy=0;entryPerimeter=0;" parent="1Kf98Kf9pndZ8J6uR5St-5" source="1Kf98Kf9pndZ8J6uR5St-22" target="1Kf98Kf9pndZ8J6uR5St-37" edge="1">
          <mxGeometry relative="1" as="geometry" />
        </mxCell>
        <mxCell id="n3WihoL2_NpWje6U1AKT-16" value="&lt;span style=&quot;font-family: Garamond;&quot;&gt;DOO&lt;/span&gt;" style="shape=mxgraph.bpmn.data;labelPosition=center;verticalLabelPosition=bottom;align=center;verticalAlign=top;size=15;html=1;" parent="1Kf98Kf9pndZ8J6uR5St-5" vertex="1">
          <mxGeometry x="245" y="180" width="40" height="40" as="geometry" />
        </mxCell>
        <mxCell id="n3WihoL2_NpWje6U1AKT-17" value="" style="edgeStyle=orthogonalEdgeStyle;fontSize=12;html=1;endFill=0;startFill=0;endSize=6;startSize=6;dashed=1;dashPattern=1 4;endArrow=none;startArrow=none;rounded=0;exitX=0;exitY=0;exitDx=25;exitDy=0;exitPerimeter=0;entryX=0.25;entryY=1;entryDx=0;entryDy=0;entryPerimeter=0;" parent="1Kf98Kf9pndZ8J6uR5St-5" source="n3WihoL2_NpWje6U1AKT-16" target="1Kf98Kf9pndZ8J6uR5St-22" edge="1">
          <mxGeometry width="160" relative="1" as="geometry">
            <mxPoint x="125" y="102" as="sourcePoint" />
            <mxPoint x="250" y="-50" as="targetPoint" />
            <Array as="points">
              <mxPoint x="270" y="152" />
            </Array>
          </mxGeometry>
        </mxCell>
        <mxCell id="1Kf98Kf9pndZ8J6uR5St-4" value="Ontology Generation" style="swimlane;html=1;startSize=20;fontStyle=0;collapsible=0;horizontal=0;swimlaneLine=1;swimlaneFillColor=#ffffff;strokeWidth=2;whiteSpace=wrap;fontFamily=Garamond;fontSize=14;rounded=0;" parent="1" vertex="1">
          <mxGeometry x="240" y="171" width="700" height="209" as="geometry" />
        </mxCell>
        <mxCell id="1Kf98Kf9pndZ8J6uR5St-15" style="edgeStyle=orthogonalEdgeStyle;rounded=0;orthogonalLoop=1;jettySize=auto;html=1;exitX=1;exitY=0.5;exitDx=0;exitDy=0;exitPerimeter=0;fontFamily=Garamond;fontSize=14;entryX=0;entryY=0.5;entryDx=0;entryDy=0;entryPerimeter=0;" parent="1Kf98Kf9pndZ8J6uR5St-4" source="1Kf98Kf9pndZ8J6uR5St-6" target="xj8BuBXsS_XyWcrpN9ro-1" edge="1">
          <mxGeometry relative="1" as="geometry">
            <mxPoint x="320" y="51" as="targetPoint" />
          </mxGeometry>
        </mxCell>
        <mxCell id="1Kf98Kf9pndZ8J6uR5St-6" value="&lt;font style=&quot;font-size: 14px;&quot;&gt;&lt;span style=&quot;font-size: 14px;&quot;&gt;Domain Reference&amp;nbsp; Ontology Generation&lt;/span&gt;&lt;/font&gt;" style="points=[[0.25,0,0],[0.5,0,0],[0.75,0,0],[1,0.25,0],[1,0.5,0],[1,0.75,0],[0.75,1,0],[0.5,1,0],[0.25,1,0],[0,0.75,0],[0,0.5,0],[0,0.25,0]];shape=mxgraph.bpmn.task;whiteSpace=wrap;rectStyle=rounded;size=10;html=1;container=1;expand=0;collapsible=0;taskMarker=abstract;fontFamily=Garamond;fontSize=14;fillColor=#e7f0fd;strokeColor=#6c8ebf;rounded=0;" parent="1Kf98Kf9pndZ8J6uR5St-4" vertex="1">
          <mxGeometry x="140" y="16" width="170" height="70" as="geometry" />
        </mxCell>
        <mxCell id="1Kf98Kf9pndZ8J6uR5St-7" value="&lt;font style=&quot;font-size: 12px;&quot;&gt;Textual domain data&lt;/font&gt;" style="shape=mxgraph.bpmn.data;labelPosition=center;verticalLabelPosition=bottom;align=center;verticalAlign=top;size=15;html=1;bpmnTransferType=input;isCollection=1;fontFamily=Garamond;fontSize=12;rounded=0;" parent="1Kf98Kf9pndZ8J6uR5St-4" vertex="1">
          <mxGeometry x="60" y="117" width="40" height="40" as="geometry" />
        </mxCell>
        <mxCell id="1Kf98Kf9pndZ8J6uR5St-8" value="" style="edgeStyle=elbowEdgeStyle;fontSize=14;html=1;endFill=0;startFill=0;endSize=6;startSize=6;dashed=1;dashPattern=1 4;endArrow=none;startArrow=none;rounded=0;exitX=1.012;exitY=0.492;exitDx=0;exitDy=0;exitPerimeter=0;fontFamily=Garamond;" parent="1Kf98Kf9pndZ8J6uR5St-4" source="1Kf98Kf9pndZ8J6uR5St-7" edge="1">
          <mxGeometry width="160" relative="1" as="geometry">
            <mxPoint x="100" y="50" as="sourcePoint" />
            <mxPoint x="160" y="90" as="targetPoint" />
            <Array as="points">
              <mxPoint x="160" y="120" />
            </Array>
          </mxGeometry>
        </mxCell>
        <mxCell id="1Kf98Kf9pndZ8J6uR5St-12" value="" style="edgeStyle=elbowEdgeStyle;fontSize=14;html=1;endFill=0;startFill=0;endSize=6;startSize=6;dashed=1;dashPattern=1 4;endArrow=none;startArrow=none;rounded=0;entryX=0;entryY=0.5;entryDx=0;entryDy=0;entryPerimeter=0;fontFamily=Garamond;" parent="1Kf98Kf9pndZ8J6uR5St-4" edge="1">
          <mxGeometry width="160" relative="1" as="geometry">
            <mxPoint x="220" y="86" as="sourcePoint" />
            <mxPoint x="246" y="137" as="targetPoint" />
            <Array as="points">
              <mxPoint x="220" y="109" />
            </Array>
          </mxGeometry>
        </mxCell>
        <mxCell id="wJY8AC6lqL3XPFAnhxow-3" value="" style="points=[[0.145,0.145,0],[0.5,0,0],[0.855,0.145,0],[1,0.5,0],[0.855,0.855,0],[0.5,1,0],[0.145,0.855,0],[0,0.5,0]];shape=mxgraph.bpmn.event;html=1;verticalLabelPosition=bottom;labelBackgroundColor=#ffffff;verticalAlign=top;align=center;perimeter=ellipsePerimeter;outlineConnect=0;aspect=fixed;outline=standard;symbol=general;rounded=0;" parent="1Kf98Kf9pndZ8J6uR5St-4" vertex="1">
          <mxGeometry x="40" y="36" width="30" height="30" as="geometry" />
        </mxCell>
        <mxCell id="wJY8AC6lqL3XPFAnhxow-4" style="edgeStyle=orthogonalEdgeStyle;rounded=0;orthogonalLoop=1;jettySize=auto;html=1;entryX=0;entryY=0.5;entryDx=0;entryDy=0;entryPerimeter=0;" parent="1Kf98Kf9pndZ8J6uR5St-4" source="wJY8AC6lqL3XPFAnhxow-3" target="1Kf98Kf9pndZ8J6uR5St-6" edge="1">
          <mxGeometry relative="1" as="geometry" />
        </mxCell>
        <mxCell id="xj8BuBXsS_XyWcrpN9ro-1" value="&lt;font style=&quot;font-size: 14px;&quot; face=&quot;Garamond&quot;&gt;Invoke LLM for semantic enrichment&amp;nbsp;&lt;/font&gt;" style="points=[[0.25,0,0],[0.5,0,0],[0.75,0,0],[1,0.25,0],[1,0.5,0],[1,0.75,0],[0.75,1,0],[0.5,1,0],[0.25,1,0],[0,0.75,0],[0,0.5,0],[0,0.25,0]];shape=mxgraph.bpmn.task;whiteSpace=wrap;rectStyle=rounded;size=10;html=1;container=1;expand=0;collapsible=0;taskMarker=script;fillColor=#E7F0FD;strokeColor=#6c8ebf;" parent="1Kf98Kf9pndZ8J6uR5St-4" vertex="1">
          <mxGeometry x="400" y="6.5" width="180" height="89" as="geometry" />
        </mxCell>
        <mxCell id="xj8BuBXsS_XyWcrpN9ro-4" value="" style="edgeStyle=elbowEdgeStyle;fontSize=14;html=1;endFill=0;startFill=0;endSize=6;startSize=6;dashed=1;dashPattern=1 4;endArrow=none;startArrow=none;rounded=0;exitX=0;exitY=0;exitDx=40;exitDy=27.5;exitPerimeter=0;entryX=0;entryY=0.75;entryDx=0;entryDy=0;entryPerimeter=0;fontFamily=Garamond;" parent="1Kf98Kf9pndZ8J6uR5St-4" source="n3WihoL2_NpWje6U1AKT-9" target="xj8BuBXsS_XyWcrpN9ro-1" edge="1">
          <mxGeometry width="160" relative="1" as="geometry">
            <mxPoint x="412.5" y="118" as="sourcePoint" />
            <mxPoint x="385" y="91" as="targetPoint" />
            <Array as="points" />
          </mxGeometry>
        </mxCell>
        <mxCell id="n3WihoL2_NpWje6U1AKT-7" value="" style="edgeStyle=elbowEdgeStyle;fontSize=14;html=1;endFill=0;startFill=0;endSize=6;startSize=6;dashed=1;dashPattern=1 4;endArrow=none;startArrow=none;rounded=0;exitX=0;exitY=0.5;exitDx=0;exitDy=0;exitPerimeter=0;entryX=1;entryY=0.5;entryDx=0;entryDy=0;entryPerimeter=0;fontFamily=Garamond;" parent="1Kf98Kf9pndZ8J6uR5St-4" target="xj8BuBXsS_XyWcrpN9ro-1" edge="1">
          <mxGeometry width="160" relative="1" as="geometry">
            <mxPoint x="630" y="50" as="sourcePoint" />
            <mxPoint x="410" y="83" as="targetPoint" />
            <Array as="points" />
          </mxGeometry>
        </mxCell>
        <mxCell id="n3WihoL2_NpWje6U1AKT-8" value="" style="edgeStyle=elbowEdgeStyle;fontSize=14;html=1;endFill=0;startFill=0;endSize=6;startSize=6;dashed=1;dashPattern=1 4;endArrow=none;startArrow=none;rounded=0;exitX=0;exitY=0;exitDx=12.5;exitDy=0;exitPerimeter=0;entryX=0.75;entryY=1;entryDx=0;entryDy=0;entryPerimeter=0;fontFamily=Garamond;" parent="1Kf98Kf9pndZ8J6uR5St-4" source="n3WihoL2_NpWje6U1AKT-12" target="xj8BuBXsS_XyWcrpN9ro-1" edge="1">
          <mxGeometry width="160" relative="1" as="geometry">
            <mxPoint x="630" y="137" as="sourcePoint" />
            <mxPoint x="600" y="61" as="targetPoint" />
            <Array as="points" />
          </mxGeometry>
        </mxCell>
        <mxCell id="n3WihoL2_NpWje6U1AKT-9" value="&lt;span style=&quot;font-family: Garamond;&quot;&gt;Prompt Template&lt;/span&gt;" style="shape=mxgraph.bpmn.data;labelPosition=center;verticalLabelPosition=bottom;align=center;verticalAlign=top;size=15;html=1;bpmnTransferType=input;" parent="1Kf98Kf9pndZ8J6uR5St-4" vertex="1">
          <mxGeometry x="330" y="117" width="40" height="40" as="geometry" />
        </mxCell>
        <mxCell id="n3WihoL2_NpWje6U1AKT-11" value="&lt;span style=&quot;font-family: Garamond;&quot;&gt;NL Domain rules&lt;/span&gt;" style="shape=mxgraph.bpmn.data;labelPosition=center;verticalLabelPosition=bottom;align=center;verticalAlign=top;size=15;html=1;" parent="1Kf98Kf9pndZ8J6uR5St-4" vertex="1">
          <mxGeometry x="634" y="26" width="40" height="40" as="geometry" />
        </mxCell>
        <mxCell id="n3WihoL2_NpWje6U1AKT-12" value="&lt;span style=&quot;font-family: Garamond;&quot;&gt;OWL Axioms&lt;/span&gt;" style="shape=mxgraph.bpmn.data;labelPosition=center;verticalLabelPosition=bottom;align=center;verticalAlign=top;size=15;html=1;" parent="1Kf98Kf9pndZ8J6uR5St-4" vertex="1">
          <mxGeometry x="524" y="117" width="40" height="40" as="geometry" />
        </mxCell>
        <mxCell id="n3WihoL2_NpWje6U1AKT-13" value="&lt;span style=&quot;font-family: Garamond;&quot;&gt;DRO&lt;/span&gt;" style="shape=mxgraph.bpmn.data;labelPosition=center;verticalLabelPosition=bottom;align=center;verticalAlign=top;size=15;html=1;" parent="1Kf98Kf9pndZ8J6uR5St-4" vertex="1">
          <mxGeometry x="240" y="117" width="40" height="40" as="geometry" />
        </mxCell>
        <mxCell id="1Kf98Kf9pndZ8J6uR5St-40" style="edgeStyle=orthogonalEdgeStyle;rounded=0;orthogonalLoop=1;jettySize=auto;html=1;entryX=0.5;entryY=0;entryDx=0;entryDy=0;entryPerimeter=0;exitX=0.5;exitY=1;exitDx=0;exitDy=0;exitPerimeter=0;fontFamily=Garamond;fontSize=14;" parent="1" source="xj8BuBXsS_XyWcrpN9ro-1" target="1Kf98Kf9pndZ8J6uR5St-22" edge="1">
          <mxGeometry relative="1" as="geometry">
            <mxPoint x="830" y="226" as="sourcePoint" />
            <Array as="points">
              <mxPoint x="730" y="360" />
              <mxPoint x="548" y="360" />
            </Array>
          </mxGeometry>
        </mxCell>
        <mxCell id="1Kf98Kf9pndZ8J6uR5St-41" style="edgeStyle=orthogonalEdgeStyle;rounded=0;orthogonalLoop=1;jettySize=auto;html=1;entryX=0.5;entryY=0;entryDx=0;entryDy=0;entryPerimeter=0;" parent="1" target="1Kf98Kf9pndZ8J6uR5St-20" edge="1">
          <mxGeometry relative="1" as="geometry">
            <Array as="points">
              <mxPoint x="435" y="360" />
              <mxPoint x="330" y="360" />
            </Array>
            <mxPoint x="435" y="257" as="sourcePoint" />
          </mxGeometry>
        </mxCell>
        <mxCell id="wJY8AC6lqL3XPFAnhxow-8" value="" style="edgeStyle=orthogonalEdgeStyle;fontSize=12;html=1;endFill=0;startFill=0;endSize=6;startSize=6;dashed=1;dashPattern=1 4;endArrow=none;startArrow=none;rounded=0;exitX=0.75;exitY=0;exitDx=0;exitDy=0;exitPerimeter=0;" parent="1" source="1Kf98Kf9pndZ8J6uR5St-20" edge="1">
          <mxGeometry width="160" relative="1" as="geometry">
            <mxPoint x="650" y="350" as="sourcePoint" />
            <mxPoint x="480" y="320" as="targetPoint" />
            <Array as="points">
              <mxPoint x="355" y="400" />
              <mxPoint x="460" y="400" />
              <mxPoint x="460" y="320" />
            </Array>
          </mxGeometry>
        </mxCell>
        <mxCell id="wJY8AC6lqL3XPFAnhxow-9" value="" style="rounded=1;whiteSpace=wrap;html=1;absoluteArcSize=1;arcSize=0;strokeWidth=1;fillColor=#d5e8d4;strokeColor=#82b366;" parent="1" vertex="1">
          <mxGeometry x="810" y="637" width="30" height="10" as="geometry" />
        </mxCell>
        <mxCell id="wJY8AC6lqL3XPFAnhxow-10" value="" style="rounded=1;whiteSpace=wrap;html=1;absoluteArcSize=1;arcSize=0;strokeWidth=1;fillColor=#e7f0fd;strokeColor=#6c8ebf;" parent="1" vertex="1">
          <mxGeometry x="810" y="657" width="30" height="10" as="geometry" />
        </mxCell>
        <mxCell id="wJY8AC6lqL3XPFAnhxow-11" value="&lt;font face=&quot;Garamond&quot; style=&quot;font-size: 12px;&quot;&gt;Run time&lt;/font&gt;" style="text;html=1;align=center;verticalAlign=middle;resizable=0;points=[];autosize=1;strokeColor=none;fillColor=none;" parent="1" vertex="1">
          <mxGeometry x="830" y="627" width="70" height="30" as="geometry" />
        </mxCell>
        <mxCell id="wJY8AC6lqL3XPFAnhxow-12" value="&lt;font face=&quot;Garamond&quot; style=&quot;font-size: 12px;&quot;&gt;Development time&lt;/font&gt;" style="text;html=1;align=center;verticalAlign=middle;resizable=0;points=[];autosize=1;strokeColor=none;fillColor=none;" parent="1" vertex="1">
          <mxGeometry x="834" y="647" width="110" height="30" as="geometry" />
        </mxCell>
        <mxCell id="n3WihoL2_NpWje6U1AKT-14" value="" style="edgeStyle=orthogonalEdgeStyle;fontSize=12;html=1;endFill=0;startFill=0;endSize=6;startSize=6;dashed=1;dashPattern=1 4;endArrow=none;startArrow=none;rounded=0;exitX=0.75;exitY=0;exitDx=0;exitDy=0;exitPerimeter=0;entryX=0.5;entryY=1;entryDx=0;entryDy=0;entryPerimeter=0;" parent="1" source="1Kf98Kf9pndZ8J6uR5St-22" target="n3WihoL2_NpWje6U1AKT-12" edge="1">
          <mxGeometry width="160" relative="1" as="geometry">
            <mxPoint x="365" y="482" as="sourcePoint" />
            <mxPoint x="490" y="330" as="targetPoint" />
            <Array as="points">
              <mxPoint x="579" y="400" />
              <mxPoint x="790" y="400" />
            </Array>
          </mxGeometry>
        </mxCell>
        <mxCell id="n3WihoL2_NpWje6U1AKT-18" style="edgeStyle=orthogonalEdgeStyle;rounded=0;orthogonalLoop=1;jettySize=auto;html=1;entryX=0.5;entryY=0;entryDx=0;entryDy=0;entryPerimeter=0;exitX=0.5;exitY=1;exitDx=0;exitDy=0;exitPerimeter=0;endArrow=none;endFill=0;dashed=1;dashPattern=1 4;" parent="1" source="n3WihoL2_NpWje6U1AKT-11" target="1Kf98Kf9pndZ8J6uR5St-26" edge="1">
          <mxGeometry relative="1" as="geometry">
            <Array as="points">
              <mxPoint x="894" y="340" />
              <mxPoint x="830" y="340" />
              <mxPoint x="830" y="472" />
            </Array>
          </mxGeometry>
        </mxCell>
        <mxCell id="qCk1fLWmk48BmXL3cbMa-1" value="" style="edgeStyle=orthogonalEdgeStyle;fontSize=12;html=1;endFill=0;startFill=0;endSize=6;startSize=6;dashed=1;dashPattern=1 4;endArrow=none;startArrow=none;rounded=0;exitX=0.25;exitY=0;exitDx=0;exitDy=0;exitPerimeter=0;entryX=0.902;entryY=0.977;entryDx=0;entryDy=0;entryPerimeter=0;" edge="1" parent="1" source="1Kf98Kf9pndZ8J6uR5St-22" target="n3WihoL2_NpWje6U1AKT-13">
          <mxGeometry width="160" relative="1" as="geometry">
            <mxPoint x="365" y="482" as="sourcePoint" />
            <mxPoint x="500" y="330" as="targetPoint" />
            <Array as="points">
              <mxPoint x="516" y="330" />
              <mxPoint x="516" y="330" />
            </Array>
          </mxGeometry>
        </mxCell>
      </root>
    </mxGraphModel>
  </diagram>
</mxfile>
